<?xml version="1.0" encoding="UTF-8" standalone="no"?>
<svg width="161px" height="83px" viewBox="0 0 161 83" version="1.1" xmlns="http://www.w3.org/2000/svg" xmlns:xlink="http://www.w3.org/1999/xlink">
    <!-- Generator: Sketch 45.1 (43504) - http://www.bohemiancoding.com/sketch -->
    <title>cloud2</title>
    <desc>Created with Sketch.</desc>
    <defs></defs>
    <g id="Page-1" stroke="none" stroke-width="1" fill="none" fill-rule="evenodd">
        <g id="cloud2" fill="#FFFFFF" fill-rule="nonzero">
            <path d="M143.278066,46.628734 C142.547621,46.628734 141.828496,46.678185 141.121287,46.764576 C137.121117,38.712997 128.818112,33.177462 119.218657,33.177462 C117.210826,33.177462 115.26198,33.424717 113.394161,33.881096 C112.85735,15.07839 97.447698,0 78.515703,0 C59.410929,0 43.894629,15.353647 43.627117,34.394076 C41.229041,33.608222 38.6701,33.177462 36.008682,33.177462 C22.506767,33.177462 11.561409,44.122819 11.561409,57.62533 C11.561409,58.070389 11.574517,58.512469 11.597753,58.95157 C11.585837,58.95157 11.573325,58.950379 11.561409,58.950379 C5.17627,58.950379 0,64.126649 0,70.511788 C0,76.896927 5.17627,82.072602 11.561409,82.072602 L143.278066,82.072602 C153.065793,82.072602 161,74.138395 161,64.350668 C161,54.562942 153.065793,46.628734 143.278066,46.628734"></path>
        </g>
    </g>
</svg>