<?xml version="1.0" encoding="UTF-8" standalone="no"?>
<svg width="156px" height="71px" viewBox="0 0 156 71" version="1.1" xmlns="http://www.w3.org/2000/svg" xmlns:xlink="http://www.w3.org/1999/xlink">
    <!-- Generator: Sketch 45.1 (43504) - http://www.bohemiancoding.com/sketch -->
    <title>cloud1</title>
    <desc>Created with Sketch.</desc>
    <defs></defs>
    <g id="Page-1" stroke="none" stroke-width="1" fill="none" fill-rule="evenodd">
        <g id="cloud1" transform="translate(77.326033, 35.311062) scale(-1, 1) translate(-77.326033, -35.311062) translate(-0.673967, -0.688938)" fill-rule="nonzero" fill="#FFFFFF">
            <path d="M143.272906,32.3668986 C141.417494,22.8933421 133.055446,15.7430104 123.016251,15.7430104 C118.755403,15.7430104 114.796363,17.0312513 111.50807,19.2379776 C105.467403,8.35743007 93.8458321,0.988169621 80.4952143,0.988169621 C62.738767,0.988169621 48.0342453,14.0180391 45.4612642,31.0173118 C43.9821249,30.6813217 42.4454433,30.4978511 40.8641978,30.4978511 C32.5044059,30.4978511 25.3106652,35.4577778 22.0641161,42.5867223 C20.0372097,41.6029549 17.761524,41.0497247 15.3560879,41.0497247 C6.87501036,41.0497247 0,47.9085281 0,56.3690508 C0,64.8301352 6.87501036,71.6889385 15.3560879,71.6889385 L40.8641978,71.6889385 L46.8569138,71.6889385 L105.746082,71.6889385 L107.660163,71.6889385 L134.681823,71.6889385 C146.08282,71.6889385 155.326033,62.4680776 155.326033,51.0933942 C155.326033,42.7786363 150.383721,35.6192996 143.272906,32.3668986" id="cloud"></path>
        </g>
    </g>
</svg>