<?xml version="1.0" encoding="UTF-8" standalone="no"?>
<svg width="117px" height="54px" viewBox="0 0 117 54" version="1.1" xmlns="http://www.w3.org/2000/svg" xmlns:xlink="http://www.w3.org/1999/xlink">
    <!-- Generator: Sketch 45.1 (43504) - http://www.bohemiancoding.com/sketch -->
    <title>cloud1</title>
    <desc>Created with Sketch.</desc>
    <defs></defs>
    <g id="Page-1" stroke="none" stroke-width="1" fill="none" fill-rule="evenodd">
        <g id="cloud1" fill-rule="nonzero" fill="#FFFFFF">
            <path d="M107.92093,24.380505 C106.523333,17.244508 100.224585,11.85849 92.662518,11.85849 C89.453016,11.85849 86.470852,12.828863 83.993931,14.491089 C79.443773,6.29527 70.689775,0.744343 60.633365,0.744343 C47.258245,0.744343 36.182001,10.559148 34.243892,23.363923 C33.129724,23.110837 31.972212,22.972637 30.781132,22.972637 C24.484083,22.972637 19.065367,26.708723 16.61989,32.078631 C15.093114,31.337604 13.378944,30.920881 11.567039,30.920881 C5.178631,30.920881 0,36.087304 0,42.460229 C0,48.833577 5.178631,54 11.567039,54 L30.781132,54 L35.295171,54 L79.653689,54 L81.095479,54 L101.44966,54 C110.03751,54 117,47.054347 117,38.486318 C117,32.223191 113.277182,26.83039 107.92093,24.380505" id="cloud"></path>
        </g>
    </g>
</svg>