<?xml version="1.0" encoding="UTF-8" standalone="no"?>
<svg width="97px" height="45px" viewBox="0 0 97 45" version="1.1" xmlns="http://www.w3.org/2000/svg" xmlns:xlink="http://www.w3.org/1999/xlink">
    <!-- Generator: Sketch 45.1 (43504) - http://www.bohemiancoding.com/sketch -->
    <title>cloud1</title>
    <desc>Created with Sketch.</desc>
    <defs></defs>
    <g id="Page-1" stroke="none" stroke-width="1" fill="none" fill-rule="evenodd">
        <g id="cloud1" transform="translate(0.000000, 0.348477)" fill-rule="nonzero" fill="#FFFFFF">
            <path d="M89.2376637,20.1597531 C88.0820186,14.2591396 82.8737095,9.80554877 76.6207872,9.80554877 C73.9669141,9.80554877 71.5010222,10.6079308 69.4529056,11.9823924 C65.6904707,5.20543315 58.4519645,0.615482375 50.1365197,0.615482375 C39.0768998,0.615482375 29.9181747,8.73114879 28.315591,19.3191617 C27.3943077,19.10989 26.4371842,18.9956152 25.4523039,18.9956152 C20.2453997,18.9956152 15.7647716,22.0849101 13.7426554,26.5251799 C12.4801948,25.9124395 11.0627818,25.5678595 9.56455375,25.5678595 C4.28210664,25.5678595 0,29.8398716 0,35.1095161 C0,40.3795104 4.28210664,44.6515225 9.56455375,44.6515225 L25.4523039,44.6515225 L29.1848727,44.6515225 L65.8640461,44.6515225 L67.0562335,44.6515225 L83.8866996,44.6515225 C90.9878214,44.6515225 96.7449655,38.9083007 96.7449655,31.8235684 C96.7449655,26.6447137 93.6666416,22.1855141 89.2376637,20.1597531" id="cloud"></path>
        </g>
    </g>
</svg>