<?xml version="1.0" encoding="UTF-8" standalone="no"?>
<svg width="199px" height="124px" viewBox="0 0 199 124" version="1.1" xmlns="http://www.w3.org/2000/svg" xmlns:xlink="http://www.w3.org/1999/xlink">
    <!-- Generator: Sketch 45.1 (43504) - http://www.bohemiancoding.com/sketch -->
    <title>laptop</title>
    <desc>Created with Sketch.</desc>
    <defs></defs>
    <g id="Page-1" stroke="none" stroke-width="1" fill="none" fill-rule="evenodd">
        <g id="laptop" fill-rule="nonzero">
            <g id="Layer_2">
                <polygon id="Shape" fill="#B3B3B3" points="1.39 119.38 1.39 119.38 197.38 119.38 185.47 110.16 13.97 110.16"></polygon>
                <path d="M1.54,119.38 C1.54,119.38 -1.29,121.38 1.54,123.38 L197.38,123.38 C197.38,123.38 199.88,122 197.38,119.38 L1.54,119.38 Z" id="Shape" fill="#666666"></path>
                <path d="M180,-2.22044605e-16 L18.46,-2.22044605e-16 C15.5738331,0.00550271636 13.2355027,2.34383313 13.23,5.23 L13.23,110 C13.23,110.099411 13.3105887,110.18 13.41,110.18 L185.54,110.18 L185.54,5.54 C185.542661,4.06988655 184.959838,2.65921934 183.92031,1.61969044 C182.880781,0.580161547 181.470113,-0.00266084537 180,3.33066907e-15 L180,-2.22044605e-16 Z M176.2,102.36 L22.87,102.36 L22.87,8.86 L176.23,8.86 L176.2,102.36 Z" id="Shape" fill="#333333"></path>
            </g>
            <g id="Layer_3" transform="translate(22.000000, 9.000000)">
                <rect id="Rectangle-path" fill="#D9F8DB" x="0.71" y="0.06" width="153.36" height="93.53"></rect>
                <polygon id="Shape" fill="#9CE58F" points="39.32 50.76 48.45 44.36 64.39 60.65 103.72 15.62 115.46 25.49 64.61 78.04"></polygon>
            </g>
        </g>
    </g>
</svg>